<svg xmlns="http://www.w3.org/2000/svg" xmlns:xlink="http://www.w3.org/1999/xlink" xmlns:lucid="lucid" width="895.71" height="1263"><g transform="translate(741 761)" lucid:page-tab-id="0_0"><path d="M-537.64-515.5v5m0 5.03v10.02m0 5v10.04m0 5v10.03m0 5v10.04m0 5v10.04m0 5.02v10.03m0 5v10.04m0 5v10.03m0 5v10.04m0 5v10.03m0 5.02v10.02m0 5.02v10.02m0 5.02v10.02m0 5.02v10.02m0 5v10.04m0 5v10.04m0 5v10.04m0 5v10.04m0 5v10.04m0 5v10.04m0 5v10.03m0 5.02v10.02m0 5.02v10m0 5.03v10.02m0 5.02v10.02m0 5v10.03m0 5v10.04m0 5v10.04m0 5.02v10.03m0 5v10.04m0 5v10.03m0 5v10.04m0 5v10.04m0 5.02V.84m0 5.02v10.02m0 5.02v10.02m0 5.02v10.02m0 5V61m0 5v10.04m0 5V91.1m0 5v10.04m0 5v10.04m0 5v10.04m0 5v10.04m0 5v10.03m0 5.02v10m0 5.03v10.02m0 5.02v10.02m0 5v10.03m0 5v10.04m0 5v10.04m0 5.02v10.03m0 5v10.04m0 5v10.03m0 5v10.04m0 5v10.03m0 5.02v10.02m0 5.02v10.02m0 5.02v10.02m0 5v10.04m0 5v10.04m0 5v10.04m0 5V437m0 5v10.04m0 5v5.02" stroke="#333" fill="none"/><path d="M-537.17-515.5h-.95v-.5h.95z" stroke="#333" stroke-width=".05" fill="#333"/><path d="M-537.63 462.03v.5" stroke="#333" fill="none"/><path d="M-556.57-442.27a8 8 0 0 1 8-8h24a8 8 0 0 1 8 8v824a8 8 0 0 1-8 8h-24a8 8 0 0 1-8-8z" stroke="#f2f2f2" fill="#d2d3d5"/><path d="M-40.45-515.5v4.96m0 4.95v9.93m0 4.96v9.9m0 4.96v9.9m0 4.97v9.9m0 4.97v9.9m0 4.97v9.9m0 4.97v9.92m0 4.95v9.93m0 4.95v9.92m0 4.95v9.92m0 4.96v9.9m0 4.97v9.9m0 4.97v9.9m0 4.97v9.9m0 4.97v9.92m0 4.96v9.92m0 4.95v9.92m0 4.95v9.92m0 4.96v9.9m0 4.97v9.9m0 4.97v9.9m0 4.97v9.92m0 4.96v9.9m0 4.97v9.92m0 4.95v9.92m0 4.95v9.9m0 4.97v9.9m0 4.97v9.9m0 4.97v9.92m0 4.96v9.9m0 4.97v9.9m0 4.97v9.9m0 4.97v9.9m0 4.96v4.96l.02.3.07.28.1.27.17.25.2.23.22.2.26.14.27.1.28.08.3.02.3.02.28.07.28.1.25.16.23.2.2.22.14.25.12.27.06.3.03.28v4.96m0 4.95v9.9m0 4.96v9.92m0 4.96v9.9m0 4.97v9.92m0 4.96v9.9m0 4.97v9.9m0 4.97v9.92m0 4.95v9.9m0 4.96v9.92m0 4.95v9.92m0 4.96v9.92m0 4.96v9.9m0 4.97v9.9m0 4.97v9.9m0 4.97v9.9m0 4.96v9.92m0 4.95v9.92m0 4.95v9.92m0 4.96v9.9m0 4.97v9.9m0 4.97v9.9m0 4.97v9.9m0 4.96v9.9m0 4.97v9.92m0 4.95v9.92m0 4.95v9.92m0 4.94v9.92m0 4.96v9.9m0 4.97v9.9m0 4.96v9.9m0 4.97v9.9m0 4.97v9.9m0 4.97v9.92m0 4.94v4.96" stroke="#333" fill="none"/><path d="M-39.98-515.5h-.95v-.5h.95z" stroke="#333" stroke-width=".05" fill="#333"/><path d="M-36.7 499.5v.5" stroke="#333" fill="none"/><path d="M-60.45-382.6a8 8 0 0 1 8-8h24a8 8 0 0 1 8 8v764a8 8 0 0 1-8 8h-24a8 8 0 0 1-8-8z" stroke="#f2f2f2" fill="#d2d3d5"/><path d="M-516.07-380.27h227.4a.17.17 0 0 0 .16-.17.17.17 0 0 1 .16-.17h211.5" stroke="#000" fill="none"/><path d="M-516.06-379.8v-.95z" stroke="#000" stroke-width=".05"/><path d="M-62.07-380.6l-14.26 4.63v-9.27z" stroke="#000"/><use xlink:href="#a" transform="matrix(1,0,0,1,-467.6741423245729,-407.44119681208815) translate(0 15.223828541048864)"/><use xlink:href="#b" transform="matrix(1,0,0,1,-467.6741423245729,-407.44119681208815) translate(47.521603675010155 15.223828541048864)"/><path d="M-632.68-632a8 8 0 0 1 8-8h174.07a8 8 0 0 1 8 8v108a8 8 0 0 1-8 8H-624.7a8 8 0 0 1-8-8z" stroke="#000" stroke-opacity="0" fill="#ffbd50"/><use xlink:href="#c" transform="matrix(1,0,0,1,-624.6807108679974,-632) translate(49.49328916314538 57.80595713526222)"/><path d="M-135.5-632a8 8 0 0 1 8-8H46.6a8 8 0 0 1 8 8v108a8 8 0 0 1-8 8h-174.1a8 8 0 0 1-8-8z" stroke="#000" stroke-opacity="0" fill="#ffcc78"/><use xlink:href="#d" transform="matrix(1,0,0,1,-127.4890478440046,-631.9999999999999) translate(57.89811117018277 57.80595713526222)"/><path d="M-720-732a8 8 0 0 1 8-8h836.75a8 8 0 0 1 8 8v28.93a8 8 0 0 1-8 8H-712a8 8 0 0 1-8-8z" stroke="#000" stroke-opacity="0" stroke-width="2" fill="#fff" fill-opacity="0"/><use xlink:href="#e" transform="matrix(1,0,0,1,-716,-736) translate(330.0267454292342 27.828242811573297)"/><use xlink:href="#f" transform="matrix(1,0,0,1,-716,-736) translate(451.9759553049277 27.828242811573297)"/><path d="M-544.45-696.53h510.47M-544.43-696.53h-1.02M-34-696.53H-33" stroke="#b2b2b2" stroke-width="2" fill="none"/><path d="M-720-688.96a8 8 0 0 1 8-8h837.7a8 8 0 0 1 8 8v2.85a8 8 0 0 1-8 8H-712a8 8 0 0 1-8-8z" stroke="#000" stroke-opacity="0" stroke-width="2" fill="#fff" fill-opacity="0"/><use xlink:href="#g" transform="matrix(1,0,0,1,-715.9999999999998,-692.9555809128706) translate(294.76660651249966 16.000849973417758)"/><use xlink:href="#h" transform="matrix(1,0,0,1,-715.9999999999998,-692.9555809128706) translate(335.46920365349837 16.000849973417758)"/><use xlink:href="#i" transform="matrix(1,0,0,1,-715.9999999999998,-692.9555809128706) translate(383.47976709935824 16.000849973417758)"/><use xlink:href="#j" transform="matrix(1,0,0,1,-715.9999999999998,-692.9555809128706) translate(445.3662159341949 16.000849973417758)"/><use xlink:href="#k" transform="matrix(1,0,0,1,-715.9999999999998,-692.9555809128706) translate(458.9183306640956 16.000849973417758)"/><use xlink:href="#l" transform="matrix(1,0,0,1,-715.9999999999998,-692.9555809128706) translate(493.09926167227513 16.000849973417758)"/><use xlink:href="#m" transform="matrix(1,0,0,1,-715.9999999999998,-692.9555809128706) translate(520.8510324502288 16.000849973417758)"/><path d="M-499.7-324.62h438.25" stroke="#000" fill="none"/><path d="M-514.45-324.62l14.26-4.64v9.27z" stroke="#000"/><path d="M-60.95-324.15h-.52v-.95h.52z" stroke="#000" stroke-width=".05"/><use xlink:href="#n" transform="matrix(1,0,0,1,-358.3657026753665,-351.46021325299927) translate(0 15.223828541048864)"/><use xlink:href="#o" transform="matrix(1,0,0,1,-358.3657026753665,-351.46021325299927) translate(56.24358877665274 15.223828541048864)"/><path d="M54.6-382c0 16.57-13.45 30-30 30-16.58 0-30-13.43-30-30s13.42-30 30-30c16.55 0 30 13.43 30 30z" stroke="#282c33" stroke-width="2" fill="#54c45e"/><use xlink:href="#p" transform="matrix(1,0,0,1,-0.41380971415787826,-406.99999999999955) translate(12.160493827160494 29.84722222222222)"/><path d="M-516.07-191.67h227.4a.17.17 0 0 0 .16-.16.17.17 0 0 1 .16-.17h211.5M-516.06-191.67h-.5" stroke="#000" fill="none"/><path d="M-62.07-192l-14.26 4.63v-9.26z" stroke="#000"/><use xlink:href="#a" transform="matrix(1,0,0,1,-486.2961071670677,-218.83566239956244) translate(0 15.223828541048864)"/><use xlink:href="#q" transform="matrix(1,0,0,1,-486.2961071670677,-218.83566239956244) translate(47.521603675010155 15.223828541048864)"/><path d="M-499.7-136.02h438.25" stroke="#000" fill="none"/><path d="M-514.45-136.02l14.26-4.63v9.27z" stroke="#000"/><path d="M-61.47-136.02h.52" stroke="#000" fill="none"/><use xlink:href="#r" transform="matrix(1,0,0,1,-325.93577625198634,-162.85466205729983) translate(0 15.223828541048864)"/><use xlink:href="#s" transform="matrix(1,0,0,1,-325.93577625198634,-162.85466205729983) translate(44.34997272895831 15.223828541048864)"/><path d="M54.6-202c0 16.57-13.45 30-30 30-16.58 0-30-13.43-30-30s13.42-30 30-30c16.55 0 30 13.43 30 30z" stroke="#282c33" stroke-width="2" fill="#54c45e"/><use xlink:href="#p" transform="matrix(1,0,0,1,-0.41380971415787826,-226.99999999999955) translate(12.160493827160494 29.84722222222222)"/><path d="M-516.07-28.26h227.4a.17.17 0 0 0 .16-.17.17.17 0 0 1 .16-.17h211.5M-516.06-28.26h-.5" stroke="#000" fill="none"/><path d="M-62.07-28.6l-14.26 4.64v-9.27z" stroke="#000"/><use xlink:href="#a" transform="matrix(1,0,0,1,-475.6518038405013,-55.43174496771569) translate(0 15.223828541048864)"/><use xlink:href="#t" transform="matrix(1,0,0,1,-475.6518038405013,-55.43174496771569) translate(47.521603675010155 15.223828541048864)"/><path d="M-499.7 27.4h438.25" stroke="#000" fill="none"/><path d="M-514.45 27.4l14.26-4.65v9.27z" stroke="#000"/><path d="M-61.47 27.4h.52" stroke="#000" fill="none"/><use xlink:href="#u" transform="matrix(1,0,0,1,-350.75378840484206,0.5492463698638641) translate(0 15.223828541048864)"/><use xlink:href="#s" transform="matrix(1,0,0,1,-350.75378840484206,0.5492463698638641) translate(93.98599703466971 15.223828541048864)"/><path d="M54.6-42c0 16.57-13.45 30-30 30C8-12-5.4-25.43-5.4-42S8-72 24.6-72c16.55 0 30 13.43 30 30z" stroke="#282c33" stroke-width="2" fill="#54c45e"/><use xlink:href="#p" transform="matrix(1,0,0,1,-0.41380971415787826,-66.99999999999955) translate(12.160493827160494 29.84722222222222)"/><path d="M-516.07 172.35h227.4a.17.17 0 0 0 .16-.16.17.17 0 0 1 .16-.18h211.5M-516.06 172.35h-.5" stroke="#000" fill="none"/><path d="M-62.07 172.02l-14.26 4.63v-9.27z" stroke="#000"/><use xlink:href="#a" transform="matrix(1,0,0,1,-487.2072068730092,145.18325613931805) translate(0 15.223828541048864)"/><use xlink:href="#v" transform="matrix(1,0,0,1,-487.2072068730092,145.18325613931805) translate(47.521603675010155 15.223828541048864)"/><path d="M-499.7 228h438.25" stroke="#000" fill="none"/><path d="M-514.45 228l14.26-4.63v9.26z" stroke="#000"/><path d="M-61.47 228h.52" stroke="#000" fill="none"/><g><use xlink:href="#w" transform="matrix(1,0,0,1,-509.34386442190794,203.36474508437627) translate(0 10.666666666666668)"/><use xlink:href="#x" transform="matrix(1,0,0,1,-509.34386442190794,203.36474508437627) translate(11.851851851851853 10.666666666666668)"/><use xlink:href="#y" transform="matrix(1,0,0,1,-509.34386442190794,203.36474508437627) translate(72.37037037037037 10.666666666666668)"/><use xlink:href="#z" transform="matrix(1,0,0,1,-509.34386442190794,203.36474508437627) translate(149.70370370370372 10.666666666666668)"/><use xlink:href="#A" transform="matrix(1,0,0,1,-509.34386442190794,203.36474508437627) translate(389.5925925925926 10.666666666666668)"/></g><path d="M54.6 158c0 16.57-13.45 30-30 30-16.58 0-30-13.43-30-30s13.42-30 30-30c16.55 0 30 13.43 30 30z" stroke="#282c33" stroke-width="2" fill="#54c45e"/><g><use xlink:href="#p" transform="matrix(1,0,0,1,-0.41380971415787826,133.00000000000045) translate(12.160493827160494 29.84722222222222)"/></g><g><path d="M-568.62 242.33c0-7.9 6.42-14.33 14.33-14.33 7.93 0 14.35 6.42 14.35 14.33v112.73c0 7.92-6.42 14.33-14.34 14.33-7.9 0-14.32-6.42-14.32-14.34z" stroke="#282c33" stroke-width="2" fill="#fff"/></g><g><use xlink:href="#B" transform="matrix(6.123233995736766e-17,-1,1,6.123233995736766e-17,-563.6190476190476,364.3944488043006) translate(2.978395061728385 13.631944444444446)"/><use xlink:href="#C" transform="matrix(6.123233995736766e-17,-1,1,6.123233995736766e-17,-563.6190476190476,364.3944488043006) translate(33.2253086419753 13.631944444444446)"/><use xlink:href="#D" transform="matrix(6.123233995736766e-17,-1,1,6.123233995736766e-17,-563.6190476190476,364.3944488043006) translate(99.63888888888889 13.631944444444446)"/></g><path d="M-660 234a6 6 0 0 1 6-6h65.14a6 6 0 0 1 6 6v129.4a6 6 0 0 1-6 6H-654a6 6 0 0 1-6-6z" fill="none"/><path d="M-582.86 369.4c-5.52 0-10-4.48-10-10v-50.7c0-5.53-4.47-10-10-10 5.53 0 10-4.48 10-10V238c0-5.52 4.48-10 10-10" stroke="#282c33" stroke-width="2" fill="none"/><g><use xlink:href="#E" transform="matrix(1,0,0,1,-654.9999999999999,233.0000000000005) translate(-17.358024691358025 57.111111111111114)"/><use xlink:href="#F" transform="matrix(1,0,0,1,-654.9999999999999,233.0000000000005) translate(-10.598765432098762 83.77777777777777)"/></g><g><path d="M-568.57 42.3c0-7.9 6.4-14.3 14.28-14.3 7.9 0 14.3 6.4 14.3 14.3v112.8c0 7.9-6.4 14.3-14.3 14.3-7.88 0-14.27-6.4-14.27-14.3z" stroke="#282c33" stroke-width="2" fill="#fff"/></g><g><use xlink:href="#G" transform="matrix(6.123233995736766e-17,-1,1,6.123233995736766e-17,-563.5714285714286,164.39444880430062) translate(3.098765432098766 17.77777777777778)"/><use xlink:href="#H" transform="matrix(6.123233995736766e-17,-1,1,6.123233995736766e-17,-563.5714285714286,164.39444880430062) translate(106.74074074074073 17.77777777777778)"/></g><path d="M-660 34a6 6 0 0 1 6-6h65.14a6 6 0 0 1 6 6v129.4a6 6 0 0 1-6 6H-654a6 6 0 0 1-6-6z" fill="none"/><path d="M-582.86 169.4c-5.52 0-10-4.48-10-10v-50.7c0-5.53-4.47-10-10-10 5.53 0 10-4.48 10-10V38c0-5.52 4.48-10 10-10" stroke="#282c33" stroke-width="2" fill="none"/><g><use xlink:href="#I" transform="matrix(1,0,0,1,-654.9999999999999,33.00000000000051) translate(-5.074074074074073 57.111111111111114)"/><use xlink:href="#F" transform="matrix(1,0,0,1,-654.9999999999999,33.00000000000051) translate(-10.598765432098762 83.77777777777777)"/></g><defs><path d="M143 4C61 4 22-44 18-125c-5-107 100-154 193-111 17 8 29 25 37 43l-32 9c-13-25-37-40-76-40-61 0-88 39-88 99 0 61 29 100 91 101 35 0 62-11 79-27v-45h-74v-28h105v86C228-13 192 4 143 4" id="J"/><path d="M30 0v-248h187v28H63v79h144v27H63v87h162V0H30" id="K"/><path d="M127-220V0H93v-220H8v-28h204v28h-85" id="L"/><path d="M33-154v-36h34v36H33zM33 0v-36h34V0H33" id="M"/><g id="a"><use transform="matrix(0.05286051576753077,0,0,0.05286051576753077,0,0)" xlink:href="#J"/><use transform="matrix(0.05286051576753077,0,0,0.05286051576753077,14.800944414908615,0)" xlink:href="#K"/><use transform="matrix(0.05286051576753077,0,0,0.05286051576753077,27.487468199116,0)" xlink:href="#L"/><use transform="matrix(0.05286051576753077,0,0,0.05286051576753077,36.94950052150401,0)" xlink:href="#M"/></g><path d="M106-169C34-169 62-67 57 0H25v-261h32l-1 103c12-21 28-36 61-36 89 0 53 116 60 194h-32v-121c2-32-8-49-39-48" id="N"/><path d="M59-47c-2 24 18 29 38 22v24C64 9 27 4 27-40v-127H5v-23h24l9-43h21v43h35v23H59v120" id="O"/><path d="M115-194c55 1 70 41 70 98S169 2 115 4C84 4 66-9 55-30l1 105H24l-1-265h31l2 30c10-21 28-34 59-34zm-8 174c40 0 45-34 45-75s-6-73-45-74c-42 0-51 32-51 76 0 43 10 73 51 73" id="P"/><path d="M135-143c-3-34-86-38-87 0 15 53 115 12 119 90S17 21 10-45l28-5c4 36 97 45 98 0-10-56-113-15-118-90-4-57 82-63 122-42 12 7 21 19 24 35" id="Q"/><path d="M0 4l72-265h28L28 4H0" id="R"/><path d="M84 4C-5 8 30-112 23-190h32v120c0 31 7 50 39 49 72-2 45-101 50-169h31l1 190h-30c-1-10 1-25-2-33-11 22-28 36-60 37" id="S"/><path d="M85-194c31 0 48 13 60 33l-1-100h32l1 261h-30c-2-10 0-23-3-31C134-8 116 4 85 4 32 4 16-35 15-94c0-66 23-100 70-100zm9 24c-40 0-46 34-46 75 0 40 6 74 45 74 42 0 51-32 51-76 0-42-9-74-50-73" id="T"/><path d="M24-231v-30h32v30H24zM24 0v-190h32V0H24" id="U"/><path d="M100-194c63 0 86 42 84 106H49c0 40 14 67 53 68 26 1 43-12 49-29l28 8c-11 28-37 45-77 45C44 4 14-33 15-96c1-61 26-98 85-98zm52 81c6-60-76-77-97-28-3 7-6 17-6 28h103" id="V"/><path d="M33 0v-38h34V0H33" id="W"/><path d="M96-169c-40 0-48 33-48 73s9 75 48 75c24 0 41-14 43-38l32 2c-6 37-31 61-74 61-59 0-76-41-82-99-10-93 101-131 147-64 4 7 5 14 7 22l-32 3c-4-21-16-35-41-35" id="X"/><path d="M24 0v-261h32V0H24" id="Y"/><path d="M117-194c89-4 53 116 60 194h-32v-121c0-31-8-49-39-48C34-167 62-67 57 0H25l-1-190h30c1 10-1 24 2 32 11-22 29-35 61-36" id="Z"/><path d="M143 0L79-87 56-68V0H24v-261h32v163l83-92h37l-77 82L181 0h-38" id="aa"/><path d="M101-234c-31-9-42 10-38 44h38v23H63V0H32v-167H5v-23h27c-7-52 17-82 69-68v24" id="ab"/><path d="M141 0L90-78 38 0H4l68-98-65-92h35l48 74 47-74h35l-64 92 68 98h-35" id="ac"/><path d="M141-36C126-15 110 5 73 4 37 3 15-17 15-53c-1-64 63-63 125-63 3-35-9-54-41-54-24 1-41 7-42 31l-33-3c5-37 33-52 76-52 45 0 72 20 72 64v82c-1 20 7 32 28 27v20c-31 9-61-2-59-35zM48-53c0 20 12 33 32 33 41-3 63-29 60-74-43 2-92-5-92 41" id="ad"/><path d="M210-169c-67 3-38 105-44 169h-31v-121c0-29-5-50-35-48C34-165 62-65 56 0H25l-1-190h30c1 10-1 24 2 32 10-44 99-50 107 0 11-21 27-35 58-36 85-2 47 119 55 194h-31v-121c0-29-5-49-35-48" id="ae"/><g id="b"><use transform="matrix(0.044444444444444446,0,0,0.044444444444444446,0,0)" xlink:href="#N"/><use transform="matrix(0.044444444444444446,0,0,0.044444444444444446,8.88888888888889,0)" xlink:href="#O"/><use transform="matrix(0.044444444444444446,0,0,0.044444444444444446,13.333333333333334,0)" xlink:href="#O"/><use transform="matrix(0.044444444444444446,0,0,0.044444444444444446,17.77777777777778,0)" xlink:href="#P"/><use transform="matrix(0.044444444444444446,0,0,0.044444444444444446,26.666666666666668,0)" xlink:href="#Q"/><use transform="matrix(0.044444444444444446,0,0,0.044444444444444446,34.66666666666667,0)" xlink:href="#M"/><use transform="matrix(0.044444444444444446,0,0,0.044444444444444446,39.111111111111114,0)" xlink:href="#R"/><use transform="matrix(0.044444444444444446,0,0,0.044444444444444446,43.55555555555556,0)" xlink:href="#R"/><use transform="matrix(0.044444444444444446,0,0,0.044444444444444446,48,0)" xlink:href="#Q"/><use transform="matrix(0.044444444444444446,0,0,0.044444444444444446,56,0)" xlink:href="#O"/><use transform="matrix(0.044444444444444446,0,0,0.044444444444444446,60.44444444444445,0)" xlink:href="#S"/><use transform="matrix(0.044444444444444446,0,0,0.044444444444444446,69.33333333333333,0)" xlink:href="#T"/><use transform="matrix(0.044444444444444446,0,0,0.044444444444444446,78.22222222222221,0)" xlink:href="#U"/><use transform="matrix(0.044444444444444446,0,0,0.044444444444444446,81.73333333333332,0)" xlink:href="#V"/><use transform="matrix(0.044444444444444446,0,0,0.044444444444444446,90.6222222222222,0)" xlink:href="#Q"/><use transform="matrix(0.044444444444444446,0,0,0.044444444444444446,98.6222222222222,0)" xlink:href="#W"/><use transform="matrix(0.044444444444444446,0,0,0.044444444444444446,103.06666666666665,0)" xlink:href="#X"/><use transform="matrix(0.044444444444444446,0,0,0.044444444444444446,111.06666666666665,0)" xlink:href="#Q"/><use transform="matrix(0.044444444444444446,0,0,0.044444444444444446,119.06666666666665,0)" xlink:href="#W"/><use transform="matrix(0.044444444444444446,0,0,0.044444444444444446,123.51111111111109,0)" xlink:href="#N"/><use transform="matrix(0.044444444444444446,0,0,0.044444444444444446,132.39999999999998,0)" xlink:href="#V"/><use transform="matrix(0.044444444444444446,0,0,0.044444444444444446,141.28888888888886,0)" xlink:href="#Y"/><use transform="matrix(0.044444444444444446,0,0,0.044444444444444446,144.79999999999998,0)" xlink:href="#Q"/><use transform="matrix(0.044444444444444446,0,0,0.044444444444444446,152.79999999999998,0)" xlink:href="#U"/><use transform="matrix(0.044444444444444446,0,0,0.044444444444444446,156.3111111111111,0)" xlink:href="#Z"/><use transform="matrix(0.044444444444444446,0,0,0.044444444444444446,165.2,0)" xlink:href="#aa"/><use transform="matrix(0.044444444444444446,0,0,0.044444444444444446,173.2,0)" xlink:href="#U"/><use transform="matrix(0.044444444444444446,0,0,0.044444444444444446,176.7111111111111,0)" xlink:href="#W"/><use transform="matrix(0.044444444444444446,0,0,0.044444444444444446,181.15555555555557,0)" xlink:href="#ab"/><use transform="matrix(0.044444444444444446,0,0,0.044444444444444446,185.6,0)" xlink:href="#U"/><use transform="matrix(0.044444444444444446,0,0,0.044444444444444446,189.11111111111117,0)" xlink:href="#R"/><use transform="matrix(0.044444444444444446,0,0,0.044444444444444446,193.5555555555556,0)" xlink:href="#V"/><use transform="matrix(0.044444444444444446,0,0,0.044444444444444446,202.44444444444449,0)" xlink:href="#ac"/><use transform="matrix(0.044444444444444446,0,0,0.044444444444444446,210.44444444444449,0)" xlink:href="#ad"/><use transform="matrix(0.044444444444444446,0,0,0.044444444444444446,219.33333333333337,0)" xlink:href="#ae"/><use transform="matrix(0.044444444444444446,0,0,0.044444444444444446,232.62222222222226,0)" xlink:href="#P"/><use transform="matrix(0.044444444444444446,0,0,0.044444444444444446,241.51111111111115,0)" xlink:href="#Y"/><use transform="matrix(0.044444444444444446,0,0,0.044444444444444446,245.02222222222227,0)" xlink:href="#V"/><use transform="matrix(0.044444444444444446,0,0,0.044444444444444446,253.91111111111115,0)" xlink:href="#ad"/><use transform="matrix(0.044444444444444446,0,0,0.044444444444444446,262.80000000000007,0)" xlink:href="#P"/><use transform="matrix(0.044444444444444446,0,0,0.044444444444444446,271.688888888889,0)" xlink:href="#P"/><use transform="matrix(0.044444444444444446,0,0,0.044444444444444446,280.5777777777779,0)" xlink:href="#R"/><use transform="matrix(0.044444444444444446,0,0,0.044444444444444446,285.02222222222235,0)" xlink:href="#Q"/><use transform="matrix(0.044444444444444446,0,0,0.044444444444444446,293.02222222222235,0)" xlink:href="#P"/><use transform="matrix(0.044444444444444446,0,0,0.044444444444444446,301.91111111111127,0)" xlink:href="#ad"/></g><path fill="#333" d="M182-130c37 4 62 22 62 59C244 23 116-4 24 0v-248c84 5 203-23 205 63 0 31-19 50-47 55zM76-148c40-3 101 13 101-30 0-44-60-28-101-31v61zm0 110c48-3 116 14 116-37 0-48-69-32-116-35v72" id="af"/><path fill="#333" d="M135-150c-39-12-60 13-60 57V0H25l-1-190h47c2 13-1 29 3 40 6-28 27-53 61-41v41" id="ag"/><path fill="#333" d="M110-194c64 0 96 36 96 99 0 64-35 99-97 99-61 0-95-36-95-99 0-62 34-99 96-99zm-1 164c35 0 45-28 45-65 0-40-10-65-43-65-34 0-45 26-45 65 0 36 10 65 43 65" id="ah"/><path fill="#333" d="M231 0h-52l-39-155L100 0H48L-1-190h46L77-45c9-52 24-97 36-145h53l37 145 32-145h46" id="ai"/><path fill="#333" d="M137-138c1-29-70-34-71-4 15 46 118 7 119 86 1 83-164 76-172 9l43-7c4 19 20 25 44 25 33 8 57-30 24-41C81-84 22-81 20-136c-2-80 154-74 161-7" id="aj"/><path fill="#333" d="M185-48c-13 30-37 53-82 52C43 2 14-33 14-96s30-98 90-98c62 0 83 45 84 108H66c0 31 8 55 39 56 18 0 30-7 34-22zm-45-69c5-46-57-63-70-21-2 6-4 13-4 21h74" id="ak"/><g id="c"><use transform="matrix(0.05286051576753077,0,0,0.05286051576753077,0,0)" xlink:href="#af"/><use transform="matrix(0.05286051576753077,0,0,0.05286051576753077,13.69087358379047,0)" xlink:href="#ag"/><use transform="matrix(0.05286051576753077,0,0,0.05286051576753077,21.091345791244777,0)" xlink:href="#ah"/><use transform="matrix(0.05286051576753077,0,0,0.05286051576753077,32.667798744334014,0)" xlink:href="#ai"/><use transform="matrix(0.05286051576753077,0,0,0.05286051576753077,47.46874315924263,0)" xlink:href="#aj"/><use transform="matrix(0.05286051576753077,0,0,0.05286051576753077,58.04084631274879,0)" xlink:href="#ak"/><use transform="matrix(0.05286051576753077,0,0,0.05286051576753077,68.61294946625493,0)" xlink:href="#ag"/></g><path fill="#333" d="M169-182c-1-43-94-46-97-3 18 66 151 10 154 114 3 95-165 93-204 36-6-8-10-19-12-30l50-8c3 46 112 56 116 5-17-69-150-10-154-114-4-87 153-88 188-35 5 8 8 18 10 28" id="al"/><path fill="#333" d="M128 0H69L1-190h53L99-40l48-150h52" id="am"/><g id="d"><use transform="matrix(0.05286051576753077,0,0,0.05286051576753077,0,0)" xlink:href="#al"/><use transform="matrix(0.05286051576753077,0,0,0.05286051576753077,12.686523784207385,0)" xlink:href="#ak"/><use transform="matrix(0.05286051576753077,0,0,0.05286051576753077,23.258626937713537,0)" xlink:href="#ag"/><use transform="matrix(0.05286051576753077,0,0,0.05286051576753077,30.659099145167843,0)" xlink:href="#am"/><use transform="matrix(0.05286051576753077,0,0,0.05286051576753077,41.231202298674,0)" xlink:href="#ak"/><use transform="matrix(0.05286051576753077,0,0,0.05286051576753077,51.803305452180155,0)" xlink:href="#ag"/></g><path fill="#b2b2b2" d="M24-248c120-7 223 5 221 122C244-46 201 0 124 0H24v-248zM76-40c74 7 117-18 117-86 0-67-45-88-117-82v168" id="an"/><path fill="#b2b2b2" d="M25-224v-37h50v37H25zM25 0v-190h50V0H25" id="ao"/><path fill="#b2b2b2" d="M133-34C117-15 103 5 69 4 32 3 11-16 11-54c-1-60 55-63 116-61 1-26-3-47-28-47-18 1-26 9-28 27l-52-2c7-38 36-58 82-57s74 22 75 68l1 82c-1 14 12 18 25 15v27c-30 8-71 5-69-32zm-48 3c29 0 43-24 42-57-32 0-66-3-65 30 0 17 8 27 23 27" id="ap"/><path fill="#b2b2b2" d="M195-6C206 82 75 100 31 46c-4-6-6-13-8-21l49-6c3 16 16 24 34 25 40 0 42-37 40-79-11 22-30 35-61 35-53 0-70-43-70-97 0-56 18-96 73-97 30 0 46 14 59 34l2-30h47zm-90-29c32 0 41-27 41-63 0-35-9-62-40-62-32 0-39 29-40 63 0 36 9 62 39 62" id="aq"/><path fill="#b2b2b2" d="M135-150c-39-12-60 13-60 57V0H25l-1-190h47c2 13-1 29 3 40 6-28 27-53 61-41v41" id="ar"/><path fill="#b2b2b2" d="M220-157c-53 9-28 100-34 157h-49v-107c1-27-5-49-29-50C55-147 81-57 75 0H25l-1-190h47c2 12-1 28 3 38 10-53 101-56 108 0 13-22 24-43 59-42 82 1 51 116 57 194h-49v-107c-1-25-5-48-29-50" id="as"/><g id="e"><use transform="matrix(0.07929077365129616,0,0,0.07929077365129616,0,0)" xlink:href="#an"/><use transform="matrix(0.07929077365129616,0,0,0.07929077365129616,20.536310375685705,0)" xlink:href="#ao"/><use transform="matrix(0.07929077365129616,0,0,0.07929077365129616,28.465387740815324,0)" xlink:href="#ap"/><use transform="matrix(0.07929077365129616,0,0,0.07929077365129616,44.32354247107455,0)" xlink:href="#aq"/><use transform="matrix(0.07929077365129616,0,0,0.07929077365129616,61.68822190070841,0)" xlink:href="#ar"/><use transform="matrix(0.07929077365129616,0,0,0.07929077365129616,72.78893021188989,0)" xlink:href="#ap"/><use transform="matrix(0.07929077365129616,0,0,0.07929077365129616,88.6470849421491,0)" xlink:href="#as"/></g><path fill="#b2b2b2" d="M135-194c53 0 70 44 70 98 0 56-19 98-73 100-31 1-45-17-59-34 3 33 2 69 2 105H25l-1-265h48c2 10 0 23 3 31 11-24 29-35 60-35zM114-30c33 0 39-31 40-66 0-38-9-64-40-64-56 0-55 130 0 130" id="at"/><path fill="#b2b2b2" d="M115-3C79 11 28 4 28-45v-112H4v-33h27l15-45h31v45h36v33H77v99c-1 23 16 31 38 25v30" id="au"/><path fill="#b2b2b2" d="M101-251c68 0 84 54 84 127C185-50 166 4 99 4S15-52 14-124c-1-75 17-127 87-127zm-1 216c37-5 36-46 36-89s4-89-36-89c-39 0-36 45-36 89 0 43-3 85 36 89" id="av"/><g id="f"><use transform="matrix(0.07929077365129616,0,0,0.07929077365129616,0,0)" xlink:href="#at"/><use transform="matrix(0.07929077365129616,0,0,0.07929077365129616,17.36467942963386,0)" xlink:href="#ap"/><use transform="matrix(0.07929077365129616,0,0,0.07929077365129616,33.2228341598931,0)" xlink:href="#ar"/><use transform="matrix(0.07929077365129616,0,0,0.07929077365129616,44.32354247107455,0)" xlink:href="#au"/><use transform="matrix(0.07929077365129616,0,0,0.07929077365129616,53.759144535578805,0)" xlink:href="#av"/></g><path fill="#b2b2b2" d="M153-248C145-148 188 4 80 4 36 3 13-21 6-62l32-5c4 25 16 42 43 43 27 0 39-20 39-49v-147H72v-28h81" id="aw"/><path fill="#b2b2b2" d="M84 4C-5 8 30-112 23-190h32v120c0 31 7 50 39 49 72-2 45-101 50-169h31l1 190h-30c-1-10 1-25-2-33-11 22-28 36-60 37" id="ax"/><path fill="#b2b2b2" d="M141-36C126-15 110 5 73 4 37 3 15-17 15-53c-1-64 63-63 125-63 3-35-9-54-41-54-24 1-41 7-42 31l-33-3c5-37 33-52 76-52 45 0 72 20 72 64v82c-1 20 7 32 28 27v20c-31 9-61-2-59-35zM48-53c0 20 12 33 32 33 41-3 63-29 60-74-43 2-92-5-92 41" id="ay"/><path fill="#b2b2b2" d="M117-194c89-4 53 116 60 194h-32v-121c0-31-8-49-39-48C34-167 62-67 57 0H25l-1-190h30c1 10-1 24 2 32 11-22 29-35 61-36" id="az"/><g id="g"><use transform="matrix(0.046252951296589434,0,0,0.046252951296589434,0,0)" xlink:href="#aw"/><use transform="matrix(0.046252951296589434,0,0,0.046252951296589434,8.325531233386098,0)" xlink:href="#ax"/><use transform="matrix(0.046252951296589434,0,0,0.046252951296589434,17.576121492703983,0)" xlink:href="#ay"/><use transform="matrix(0.046252951296589434,0,0,0.046252951296589434,26.826711752021872,0)" xlink:href="#az"/></g><path fill="#b2b2b2" d="M30-248c118-7 216 8 213 122C240-48 200 0 122 0H30v-248zM63-27c89 8 146-16 146-99s-60-101-146-95v194" id="aA"/><path fill="#b2b2b2" d="M24-231v-30h32v30H24zM24 0v-190h32V0H24" id="aB"/><path fill="#b2b2b2" d="M100-194c63 0 86 42 84 106H49c0 40 14 67 53 68 26 1 43-12 49-29l28 8c-11 28-37 45-77 45C44 4 14-33 15-96c1-61 26-98 85-98zm52 81c6-60-76-77-97-28-3 7-6 17-6 28h103" id="aC"/><path fill="#b2b2b2" d="M177-190C167-65 218 103 67 71c-23-6-38-20-44-43l32-5c15 47 100 32 89-28v-30C133-14 115 1 83 1 29 1 15-40 15-95c0-56 16-97 71-98 29-1 48 16 59 35 1-10 0-23 2-32h30zM94-22c36 0 50-32 50-73 0-42-14-75-50-75-39 0-46 34-46 75s6 73 46 73" id="aD"/><path fill="#b2b2b2" d="M100-194c62-1 85 37 85 99 1 63-27 99-86 99S16-35 15-95c0-66 28-99 85-99zM99-20c44 1 53-31 53-75 0-43-8-75-51-75s-53 32-53 75 10 74 51 75" id="aE"/><g id="h"><use transform="matrix(0.046252951296589434,0,0,0.046252951296589434,0,0)" xlink:href="#aA"/><use transform="matrix(0.046252951296589434,0,0,0.046252951296589434,11.979514385816664,0)" xlink:href="#aB"/><use transform="matrix(0.046252951296589434,0,0,0.046252951296589434,15.633497538247232,0)" xlink:href="#aC"/><use transform="matrix(0.046252951296589434,0,0,0.046252951296589434,24.884087797565115,0)" xlink:href="#aD"/><use transform="matrix(0.046252951296589434,0,0,0.046252951296589434,34.134678056883004,0)" xlink:href="#aE"/></g><path fill="#b2b2b2" d="M210-169c-67 3-38 105-44 169h-31v-121c0-29-5-50-35-48C34-165 62-65 56 0H25l-1-190h30c1 10-1 24 2 32 10-44 99-50 107 0 11-21 27-35 58-36 85-2 47 119 55 194h-31v-121c0-29-5-49-35-48" id="aF"/><path fill="#b2b2b2" d="M135-143c-3-34-86-38-87 0 15 53 115 12 119 90S17 21 10-45l28-5c4 36 97 45 98 0-10-56-113-15-118-90-4-57 82-63 122-42 12 7 21 19 24 35" id="aG"/><g id="i"><use transform="matrix(0.046252951296589434,0,0,0.046252951296589434,0,0)" xlink:href="#aw"/><use transform="matrix(0.046252951296589434,0,0,0.046252951296589434,8.325531233386098,0)" xlink:href="#ay"/><use transform="matrix(0.046252951296589434,0,0,0.046252951296589434,17.576121492703983,0)" xlink:href="#aB"/><use transform="matrix(0.046252951296589434,0,0,0.046252951296589434,21.23010464513455,0)" xlink:href="#aF"/><use transform="matrix(0.046252951296589434,0,0,0.046252951296589434,35.05973708281479,0)" xlink:href="#aC"/><use transform="matrix(0.046252951296589434,0,0,0.046252951296589434,44.31032734213268,0)" xlink:href="#aG"/></g><path fill="#b2b2b2" d="M32 76v-337h29V76H32" id="aH"/><use transform="matrix(0.046252951296589434,0,0,0.046252951296589434,0,0)" xlink:href="#aH" id="j"/><path fill="#b2b2b2" d="M24 0v-261h32V0H24" id="aI"/><path fill="#b2b2b2" d="M179-190L93 31C79 59 56 82 12 73V49c39 6 53-20 64-50L1-190h34L92-34l54-156h33" id="aJ"/><g id="k"><use transform="matrix(0.046252951296589434,0,0,0.046252951296589434,0,0)" xlink:href="#aw"/><use transform="matrix(0.046252951296589434,0,0,0.046252951296589434,8.325531233386098,0)" xlink:href="#ax"/><use transform="matrix(0.046252951296589434,0,0,0.046252951296589434,17.576121492703983,0)" xlink:href="#aI"/><use transform="matrix(0.046252951296589434,0,0,0.046252951296589434,21.23010464513455,0)" xlink:href="#aJ"/></g><path fill="#b2b2b2" d="M27 0v-27h64v-190l-56 39v-29l58-41h29v221h61V0H27" id="aK"/><path fill="#b2b2b2" d="M134-131c28 9 52 24 51 62-1 50-34 73-85 73S17-19 16-69c0-36 21-54 49-61-75-25-45-126 34-121 46 3 78 18 79 63 0 33-17 51-44 57zm-34-11c31 1 46-15 46-44 0-28-17-43-47-42-29 0-46 13-45 42 1 28 16 44 46 44zm1 122c35 0 51-18 51-52 0-30-18-46-53-46-33 0-51 17-51 47 0 34 19 51 53 51" id="aL"/><path fill="#b2b2b2" d="M68-38c1 34 0 65-14 84H32c9-13 17-26 17-46H33v-38h35" id="aM"/><g id="l"><use transform="matrix(0.046252951296589434,0,0,0.046252951296589434,0,0)" xlink:href="#aK"/><use transform="matrix(0.046252951296589434,0,0,0.046252951296589434,9.250590259317887,0)" xlink:href="#aL"/><use transform="matrix(0.046252951296589434,0,0,0.046252951296589434,18.501180518635774,0)" xlink:href="#aM"/></g><path fill="#b2b2b2" d="M101-251c82-7 93 87 43 132L82-64C71-53 59-42 53-27h129V0H18c2-99 128-94 128-182 0-28-16-43-45-43s-46 15-49 41l-32-3c6-41 34-60 81-64" id="aN"/><path fill="#b2b2b2" d="M101-251c68 0 85 55 85 127S166 4 100 4C33 4 14-52 14-124c0-73 17-127 87-127zm-1 229c47 0 54-49 54-102s-4-102-53-102c-51 0-55 48-55 102 0 53 5 102 54 102" id="aO"/><path fill="#b2b2b2" d="M155-56V0h-30v-56H8v-25l114-167h33v167h35v25h-35zm-30-156c-27 46-58 90-88 131h88v-131" id="aP"/><g id="m"><use transform="matrix(0.046252951296589434,0,0,0.046252951296589434,0,0)" xlink:href="#aN"/><use transform="matrix(0.046252951296589434,0,0,0.046252951296589434,9.250590259317887,0)" xlink:href="#aO"/><use transform="matrix(0.046252951296589434,0,0,0.046252951296589434,18.501180518635774,0)" xlink:href="#aN"/><use transform="matrix(0.046252951296589434,0,0,0.046252951296589434,27.75177077795366,0)" xlink:href="#aP"/></g><path d="M197 0v-115H63V0H30v-248h33v105h134v-105h34V0h-34" id="aQ"/><path d="M240 0l2-218c-23 76-54 145-80 218h-23L58-218 59 0H30v-248h44l77 211c21-75 51-140 76-211h43V0h-30" id="aR"/><path d="M30 0v-248h33v221h125V0H30" id="aS"/><g id="n"><use transform="matrix(0.05286051576753077,0,0,0.05286051576753077,0,0)" xlink:href="#aQ"/><use transform="matrix(0.05286051576753077,0,0,0.05286051576753077,13.69087358379047,0)" xlink:href="#L"/><use transform="matrix(0.05286051576753077,0,0,0.05286051576753077,25.267326536879708,0)" xlink:href="#aR"/><use transform="matrix(0.05286051576753077,0,0,0.05286051576753077,41.07262075137141,0)" xlink:href="#aS"/></g><path d="M100-194c62-1 85 37 85 99 1 63-27 99-86 99S16-35 15-95c0-66 28-99 85-99zM99-20c44 1 53-31 53-75 0-43-8-75-51-75s-53 32-53 75 10 74 51 75" id="aT"/><g id="o"><use transform="matrix(0.05286051576753077,0,0,0.05286051576753077,0,0)" xlink:href="#T"/><use transform="matrix(0.05286051576753077,0,0,0.05286051576753077,10.572103153506154,0)" xlink:href="#aT"/><use transform="matrix(0.05286051576753077,0,0,0.05286051576753077,21.144206307012308,0)" xlink:href="#X"/><use transform="matrix(0.05286051576753077,0,0,0.05286051576753077,30.659099145167847,0)" xlink:href="#S"/><use transform="matrix(0.05286051576753077,0,0,0.05286051576753077,41.231202298674,0)" xlink:href="#ae"/><use transform="matrix(0.05286051576753077,0,0,0.05286051576753077,57.0364965131657,0)" xlink:href="#V"/><use transform="matrix(0.05286051576753077,0,0,0.05286051576753077,67.60859966667185,0)" xlink:href="#Z"/><use transform="matrix(0.05286051576753077,0,0,0.05286051576753077,78.180702820178,0)" xlink:href="#O"/></g><path fill="#282c33" d="M140-251c81 0 123 46 123 126C263-46 219 4 140 4 59 4 17-45 17-125s42-126 123-126zm0 227c63 0 89-41 89-101s-29-99-89-99c-61 0-89 39-89 99S79-25 140-24" id="aU"/><path fill="#282c33" d="M194 0L95-120 63-95V0H30v-248h33v124l119-124h40L117-140 236 0h-42" id="aV"/><g id="p"><use transform="matrix(0.04938271604938272,0,0,0.04938271604938272,0,0)" xlink:href="#aU"/><use transform="matrix(0.04938271604938272,0,0,0.04938271604938272,13.827160493827162,0)" xlink:href="#aV"/></g><g id="q"><use transform="matrix(0.044444444444444446,0,0,0.044444444444444446,0,0)" xlink:href="#N"/><use transform="matrix(0.044444444444444446,0,0,0.044444444444444446,8.88888888888889,0)" xlink:href="#O"/><use transform="matrix(0.044444444444444446,0,0,0.044444444444444446,13.333333333333334,0)" xlink:href="#O"/><use transform="matrix(0.044444444444444446,0,0,0.044444444444444446,17.77777777777778,0)" xlink:href="#P"/><use transform="matrix(0.044444444444444446,0,0,0.044444444444444446,26.666666666666668,0)" xlink:href="#Q"/><use transform="matrix(0.044444444444444446,0,0,0.044444444444444446,34.66666666666667,0)" xlink:href="#M"/><use transform="matrix(0.044444444444444446,0,0,0.044444444444444446,39.111111111111114,0)" xlink:href="#R"/><use transform="matrix(0.044444444444444446,0,0,0.044444444444444446,43.55555555555556,0)" xlink:href="#R"/><use transform="matrix(0.044444444444444446,0,0,0.044444444444444446,48,0)" xlink:href="#Q"/><use transform="matrix(0.044444444444444446,0,0,0.044444444444444446,56,0)" xlink:href="#O"/><use transform="matrix(0.044444444444444446,0,0,0.044444444444444446,60.44444444444445,0)" xlink:href="#S"/><use transform="matrix(0.044444444444444446,0,0,0.044444444444444446,69.33333333333333,0)" xlink:href="#T"/><use transform="matrix(0.044444444444444446,0,0,0.044444444444444446,78.22222222222221,0)" xlink:href="#U"/><use transform="matrix(0.044444444444444446,0,0,0.044444444444444446,81.73333333333332,0)" xlink:href="#V"/><use transform="matrix(0.044444444444444446,0,0,0.044444444444444446,90.6222222222222,0)" xlink:href="#Q"/><use transform="matrix(0.044444444444444446,0,0,0.044444444444444446,98.6222222222222,0)" xlink:href="#W"/><use transform="matrix(0.044444444444444446,0,0,0.044444444444444446,103.06666666666665,0)" xlink:href="#X"/><use transform="matrix(0.044444444444444446,0,0,0.044444444444444446,111.06666666666665,0)" xlink:href="#Q"/><use transform="matrix(0.044444444444444446,0,0,0.044444444444444446,119.06666666666665,0)" xlink:href="#W"/><use transform="matrix(0.044444444444444446,0,0,0.044444444444444446,123.51111111111109,0)" xlink:href="#N"/><use transform="matrix(0.044444444444444446,0,0,0.044444444444444446,132.39999999999998,0)" xlink:href="#V"/><use transform="matrix(0.044444444444444446,0,0,0.044444444444444446,141.28888888888886,0)" xlink:href="#Y"/><use transform="matrix(0.044444444444444446,0,0,0.044444444444444446,144.79999999999998,0)" xlink:href="#Q"/><use transform="matrix(0.044444444444444446,0,0,0.044444444444444446,152.79999999999998,0)" xlink:href="#U"/><use transform="matrix(0.044444444444444446,0,0,0.044444444444444446,156.3111111111111,0)" xlink:href="#Z"/><use transform="matrix(0.044444444444444446,0,0,0.044444444444444446,165.2,0)" xlink:href="#aa"/><use transform="matrix(0.044444444444444446,0,0,0.044444444444444446,173.2,0)" xlink:href="#U"/><use transform="matrix(0.044444444444444446,0,0,0.044444444444444446,176.7111111111111,0)" xlink:href="#W"/><use transform="matrix(0.044444444444444446,0,0,0.044444444444444446,181.15555555555557,0)" xlink:href="#ab"/><use transform="matrix(0.044444444444444446,0,0,0.044444444444444446,185.6,0)" xlink:href="#U"/><use transform="matrix(0.044444444444444446,0,0,0.044444444444444446,189.11111111111117,0)" xlink:href="#R"/><use transform="matrix(0.044444444444444446,0,0,0.044444444444444446,193.5555555555556,0)" xlink:href="#V"/><use transform="matrix(0.044444444444444446,0,0,0.044444444444444446,202.44444444444449,0)" xlink:href="#ac"/><use transform="matrix(0.044444444444444446,0,0,0.044444444444444446,210.44444444444449,0)" xlink:href="#ad"/><use transform="matrix(0.044444444444444446,0,0,0.044444444444444446,219.33333333333337,0)" xlink:href="#ae"/><use transform="matrix(0.044444444444444446,0,0,0.044444444444444446,232.62222222222226,0)" xlink:href="#P"/><use transform="matrix(0.044444444444444446,0,0,0.044444444444444446,241.51111111111115,0)" xlink:href="#Y"/><use transform="matrix(0.044444444444444446,0,0,0.044444444444444446,245.02222222222227,0)" xlink:href="#V"/><use transform="matrix(0.044444444444444446,0,0,0.044444444444444446,253.91111111111115,0)" xlink:href="#ad"/><use transform="matrix(0.044444444444444446,0,0,0.044444444444444446,262.80000000000007,0)" xlink:href="#P"/><use transform="matrix(0.044444444444444446,0,0,0.044444444444444446,271.688888888889,0)" xlink:href="#P"/><use transform="matrix(0.044444444444444446,0,0,0.044444444444444446,280.5777777777779,0)" xlink:href="#R"/><use transform="matrix(0.044444444444444446,0,0,0.044444444444444446,285.02222222222235,0)" xlink:href="#ae"/><use transform="matrix(0.044444444444444446,0,0,0.044444444444444446,298.31111111111125,0)" xlink:href="#ad"/><use transform="matrix(0.044444444444444446,0,0,0.044444444444444446,307.20000000000016,0)" xlink:href="#U"/><use transform="matrix(0.044444444444444446,0,0,0.044444444444444446,310.7111111111113,0)" xlink:href="#Z"/><use transform="matrix(0.044444444444444446,0,0,0.044444444444444446,319.6000000000002,0)" xlink:href="#W"/><use transform="matrix(0.044444444444444446,0,0,0.044444444444444446,324.04444444444465,0)" xlink:href="#X"/><use transform="matrix(0.044444444444444446,0,0,0.044444444444444446,332.04444444444465,0)" xlink:href="#Q"/><use transform="matrix(0.044444444444444446,0,0,0.044444444444444446,340.04444444444465,0)" xlink:href="#Q"/></g><path d="M212-179c-10-28-35-45-73-45-59 0-87 40-87 99 0 60 29 101 89 101 43 0 62-24 78-52l27 14C228-24 195 4 139 4 59 4 22-46 18-125c-6-104 99-153 187-111 19 9 31 26 39 46" id="aW"/><path d="M185-189c-5-48-123-54-124 2 14 75 158 14 163 119 3 78-121 87-175 55-17-10-28-26-33-46l33-7c5 56 141 63 141-1 0-78-155-14-162-118-5-82 145-84 179-34 5 7 8 16 11 25" id="aX"/><g id="r"><use transform="matrix(0.05286051576753077,0,0,0.05286051576753077,0,0)" xlink:href="#aW"/><use transform="matrix(0.05286051576753077,0,0,0.05286051576753077,13.69087358379047,0)" xlink:href="#aX"/><use transform="matrix(0.05286051576753077,0,0,0.05286051576753077,26.377397367997855,0)" xlink:href="#aX"/></g><path d="M63-220v92h138v28H63V0H30v-248h175v28H63" id="aY"/><g id="s"><use transform="matrix(0.05286051576753077,0,0,0.05286051576753077,0,0)" xlink:href="#aY"/><use transform="matrix(0.05286051576753077,0,0,0.05286051576753077,11.57645295308924,0)" xlink:href="#U"/><use transform="matrix(0.05286051576753077,0,0,0.05286051576753077,15.75243369872417,0)" xlink:href="#Y"/><use transform="matrix(0.05286051576753077,0,0,0.05286051576753077,19.9284144443591,0)" xlink:href="#V"/></g><path d="M24-231v-30h32v30H24zM-9 49c24 4 33-6 33-30v-209h32V24c2 40-23 58-65 49V49" id="aZ"/><g id="t"><use transform="matrix(0.044444444444444446,0,0,0.044444444444444446,0,0)" xlink:href="#N"/><use transform="matrix(0.044444444444444446,0,0,0.044444444444444446,8.88888888888889,0)" xlink:href="#O"/><use transform="matrix(0.044444444444444446,0,0,0.044444444444444446,13.333333333333334,0)" xlink:href="#O"/><use transform="matrix(0.044444444444444446,0,0,0.044444444444444446,17.77777777777778,0)" xlink:href="#P"/><use transform="matrix(0.044444444444444446,0,0,0.044444444444444446,26.666666666666668,0)" xlink:href="#Q"/><use transform="matrix(0.044444444444444446,0,0,0.044444444444444446,34.66666666666667,0)" xlink:href="#M"/><use transform="matrix(0.044444444444444446,0,0,0.044444444444444446,39.111111111111114,0)" xlink:href="#R"/><use transform="matrix(0.044444444444444446,0,0,0.044444444444444446,43.55555555555556,0)" xlink:href="#R"/><use transform="matrix(0.044444444444444446,0,0,0.044444444444444446,48,0)" xlink:href="#Q"/><use transform="matrix(0.044444444444444446,0,0,0.044444444444444446,56,0)" xlink:href="#O"/><use transform="matrix(0.044444444444444446,0,0,0.044444444444444446,60.44444444444445,0)" xlink:href="#S"/><use transform="matrix(0.044444444444444446,0,0,0.044444444444444446,69.33333333333333,0)" xlink:href="#T"/><use transform="matrix(0.044444444444444446,0,0,0.044444444444444446,78.22222222222221,0)" xlink:href="#U"/><use transform="matrix(0.044444444444444446,0,0,0.044444444444444446,81.73333333333332,0)" xlink:href="#V"/><use transform="matrix(0.044444444444444446,0,0,0.044444444444444446,90.6222222222222,0)" xlink:href="#Q"/><use transform="matrix(0.044444444444444446,0,0,0.044444444444444446,98.6222222222222,0)" xlink:href="#W"/><use transform="matrix(0.044444444444444446,0,0,0.044444444444444446,103.06666666666665,0)" xlink:href="#X"/><use transform="matrix(0.044444444444444446,0,0,0.044444444444444446,111.06666666666665,0)" xlink:href="#Q"/><use transform="matrix(0.044444444444444446,0,0,0.044444444444444446,119.06666666666665,0)" xlink:href="#W"/><use transform="matrix(0.044444444444444446,0,0,0.044444444444444446,123.51111111111109,0)" xlink:href="#N"/><use transform="matrix(0.044444444444444446,0,0,0.044444444444444446,132.39999999999998,0)" xlink:href="#V"/><use transform="matrix(0.044444444444444446,0,0,0.044444444444444446,141.28888888888886,0)" xlink:href="#Y"/><use transform="matrix(0.044444444444444446,0,0,0.044444444444444446,144.79999999999998,0)" xlink:href="#Q"/><use transform="matrix(0.044444444444444446,0,0,0.044444444444444446,152.79999999999998,0)" xlink:href="#U"/><use transform="matrix(0.044444444444444446,0,0,0.044444444444444446,156.3111111111111,0)" xlink:href="#Z"/><use transform="matrix(0.044444444444444446,0,0,0.044444444444444446,165.2,0)" xlink:href="#aa"/><use transform="matrix(0.044444444444444446,0,0,0.044444444444444446,173.2,0)" xlink:href="#U"/><use transform="matrix(0.044444444444444446,0,0,0.044444444444444446,176.7111111111111,0)" xlink:href="#W"/><use transform="matrix(0.044444444444444446,0,0,0.044444444444444446,181.15555555555557,0)" xlink:href="#ab"/><use transform="matrix(0.044444444444444446,0,0,0.044444444444444446,185.6,0)" xlink:href="#U"/><use transform="matrix(0.044444444444444446,0,0,0.044444444444444446,189.11111111111117,0)" xlink:href="#R"/><use transform="matrix(0.044444444444444446,0,0,0.044444444444444446,193.5555555555556,0)" xlink:href="#V"/><use transform="matrix(0.044444444444444446,0,0,0.044444444444444446,202.44444444444449,0)" xlink:href="#ac"/><use transform="matrix(0.044444444444444446,0,0,0.044444444444444446,210.44444444444449,0)" xlink:href="#ad"/><use transform="matrix(0.044444444444444446,0,0,0.044444444444444446,219.33333333333337,0)" xlink:href="#ae"/><use transform="matrix(0.044444444444444446,0,0,0.044444444444444446,232.62222222222226,0)" xlink:href="#P"/><use transform="matrix(0.044444444444444446,0,0,0.044444444444444446,241.51111111111115,0)" xlink:href="#Y"/><use transform="matrix(0.044444444444444446,0,0,0.044444444444444446,245.02222222222227,0)" xlink:href="#V"/><use transform="matrix(0.044444444444444446,0,0,0.044444444444444446,253.91111111111115,0)" xlink:href="#ad"/><use transform="matrix(0.044444444444444446,0,0,0.044444444444444446,262.80000000000007,0)" xlink:href="#P"/><use transform="matrix(0.044444444444444446,0,0,0.044444444444444446,271.688888888889,0)" xlink:href="#P"/><use transform="matrix(0.044444444444444446,0,0,0.044444444444444446,280.5777777777779,0)" xlink:href="#R"/><use transform="matrix(0.044444444444444446,0,0,0.044444444444444446,285.02222222222235,0)" xlink:href="#Q"/><use transform="matrix(0.044444444444444446,0,0,0.044444444444444446,293.02222222222235,0)" xlink:href="#P"/><use transform="matrix(0.044444444444444446,0,0,0.044444444444444446,301.91111111111127,0)" xlink:href="#ad"/><use transform="matrix(0.044444444444444446,0,0,0.044444444444444446,310.8000000000002,0)" xlink:href="#W"/><use transform="matrix(0.044444444444444446,0,0,0.044444444444444446,315.24444444444464,0)" xlink:href="#aZ"/><use transform="matrix(0.044444444444444446,0,0,0.044444444444444446,318.75555555555576,0)" xlink:href="#Q"/></g><path d="M153-248C145-148 188 4 80 4 36 3 13-21 6-62l32-5c4 25 16 42 43 43 27 0 39-20 39-49v-147H72v-28h81" id="ba"/><path d="M108 0H70L1-190h34L89-25l56-165h34" id="bb"/><path d="M114-163C36-179 61-72 57 0H25l-1-190h30c1 12-1 29 2 39 6-27 23-49 58-41v29" id="bc"/><g id="u"><use transform="matrix(0.05286051576753077,0,0,0.05286051576753077,0,0)" xlink:href="#ba"/><use transform="matrix(0.05286051576753077,0,0,0.05286051576753077,9.51489283815554,0)" xlink:href="#ad"/><use transform="matrix(0.05286051576753077,0,0,0.05286051576753077,20.086995991661695,0)" xlink:href="#bb"/><use transform="matrix(0.05286051576753077,0,0,0.05286051576753077,29.60188882981723,0)" xlink:href="#ad"/><use transform="matrix(0.05286051576753077,0,0,0.05286051576753077,40.17399198332339,0)" xlink:href="#aX"/><use transform="matrix(0.05286051576753077,0,0,0.05286051576753077,52.86051576753077,0)" xlink:href="#X"/><use transform="matrix(0.05286051576753077,0,0,0.05286051576753077,62.37540860568631,0)" xlink:href="#bc"/><use transform="matrix(0.05286051576753077,0,0,0.05286051576753077,68.66580998202247,0)" xlink:href="#U"/><use transform="matrix(0.05286051576753077,0,0,0.05286051576753077,72.8417907276574,0)" xlink:href="#P"/><use transform="matrix(0.05286051576753077,0,0,0.05286051576753077,83.41389388116355,0)" xlink:href="#O"/></g><g id="v"><use transform="matrix(0.044444444444444446,0,0,0.044444444444444446,0,0)" xlink:href="#N"/><use transform="matrix(0.044444444444444446,0,0,0.044444444444444446,8.88888888888889,0)" xlink:href="#O"/><use transform="matrix(0.044444444444444446,0,0,0.044444444444444446,13.333333333333334,0)" xlink:href="#O"/><use transform="matrix(0.044444444444444446,0,0,0.044444444444444446,17.77777777777778,0)" xlink:href="#P"/><use transform="matrix(0.044444444444444446,0,0,0.044444444444444446,26.666666666666668,0)" xlink:href="#Q"/><use transform="matrix(0.044444444444444446,0,0,0.044444444444444446,34.66666666666667,0)" xlink:href="#M"/><use transform="matrix(0.044444444444444446,0,0,0.044444444444444446,39.111111111111114,0)" xlink:href="#R"/><use transform="matrix(0.044444444444444446,0,0,0.044444444444444446,43.55555555555556,0)" xlink:href="#R"/><use transform="matrix(0.044444444444444446,0,0,0.044444444444444446,48,0)" xlink:href="#Q"/><use transform="matrix(0.044444444444444446,0,0,0.044444444444444446,56,0)" xlink:href="#O"/><use transform="matrix(0.044444444444444446,0,0,0.044444444444444446,60.44444444444445,0)" xlink:href="#S"/><use transform="matrix(0.044444444444444446,0,0,0.044444444444444446,69.33333333333333,0)" xlink:href="#T"/><use transform="matrix(0.044444444444444446,0,0,0.044444444444444446,78.22222222222221,0)" xlink:href="#U"/><use transform="matrix(0.044444444444444446,0,0,0.044444444444444446,81.73333333333332,0)" xlink:href="#V"/><use transform="matrix(0.044444444444444446,0,0,0.044444444444444446,90.6222222222222,0)" xlink:href="#Q"/><use transform="matrix(0.044444444444444446,0,0,0.044444444444444446,98.6222222222222,0)" xlink:href="#W"/><use transform="matrix(0.044444444444444446,0,0,0.044444444444444446,103.06666666666665,0)" xlink:href="#X"/><use transform="matrix(0.044444444444444446,0,0,0.044444444444444446,111.06666666666665,0)" xlink:href="#Q"/><use transform="matrix(0.044444444444444446,0,0,0.044444444444444446,119.06666666666665,0)" xlink:href="#W"/><use transform="matrix(0.044444444444444446,0,0,0.044444444444444446,123.51111111111109,0)" xlink:href="#N"/><use transform="matrix(0.044444444444444446,0,0,0.044444444444444446,132.39999999999998,0)" xlink:href="#V"/><use transform="matrix(0.044444444444444446,0,0,0.044444444444444446,141.28888888888886,0)" xlink:href="#Y"/><use transform="matrix(0.044444444444444446,0,0,0.044444444444444446,144.79999999999998,0)" xlink:href="#Q"/><use transform="matrix(0.044444444444444446,0,0,0.044444444444444446,152.79999999999998,0)" xlink:href="#U"/><use transform="matrix(0.044444444444444446,0,0,0.044444444444444446,156.3111111111111,0)" xlink:href="#Z"/><use transform="matrix(0.044444444444444446,0,0,0.044444444444444446,165.2,0)" xlink:href="#aa"/><use transform="matrix(0.044444444444444446,0,0,0.044444444444444446,173.2,0)" xlink:href="#U"/><use transform="matrix(0.044444444444444446,0,0,0.044444444444444446,176.7111111111111,0)" xlink:href="#W"/><use transform="matrix(0.044444444444444446,0,0,0.044444444444444446,181.15555555555557,0)" xlink:href="#ab"/><use transform="matrix(0.044444444444444446,0,0,0.044444444444444446,185.6,0)" xlink:href="#U"/><use transform="matrix(0.044444444444444446,0,0,0.044444444444444446,189.11111111111117,0)" xlink:href="#R"/><use transform="matrix(0.044444444444444446,0,0,0.044444444444444446,193.5555555555556,0)" xlink:href="#V"/><use transform="matrix(0.044444444444444446,0,0,0.044444444444444446,202.44444444444449,0)" xlink:href="#ac"/><use transform="matrix(0.044444444444444446,0,0,0.044444444444444446,210.44444444444449,0)" xlink:href="#ad"/><use transform="matrix(0.044444444444444446,0,0,0.044444444444444446,219.33333333333337,0)" xlink:href="#ae"/><use transform="matrix(0.044444444444444446,0,0,0.044444444444444446,232.62222222222226,0)" xlink:href="#P"/><use transform="matrix(0.044444444444444446,0,0,0.044444444444444446,241.51111111111115,0)" xlink:href="#Y"/><use transform="matrix(0.044444444444444446,0,0,0.044444444444444446,245.02222222222227,0)" xlink:href="#V"/><use transform="matrix(0.044444444444444446,0,0,0.044444444444444446,253.91111111111115,0)" xlink:href="#ad"/><use transform="matrix(0.044444444444444446,0,0,0.044444444444444446,262.80000000000007,0)" xlink:href="#P"/><use transform="matrix(0.044444444444444446,0,0,0.044444444444444446,271.688888888889,0)" xlink:href="#P"/><use transform="matrix(0.044444444444444446,0,0,0.044444444444444446,280.5777777777779,0)" xlink:href="#R"/><use transform="matrix(0.044444444444444446,0,0,0.044444444444444446,285.02222222222235,0)" xlink:href="#T"/><use transform="matrix(0.044444444444444446,0,0,0.044444444444444446,293.91111111111127,0)" xlink:href="#ad"/><use transform="matrix(0.044444444444444446,0,0,0.044444444444444446,302.8000000000002,0)" xlink:href="#O"/><use transform="matrix(0.044444444444444446,0,0,0.044444444444444446,307.24444444444464,0)" xlink:href="#ad"/><use transform="matrix(0.044444444444444446,0,0,0.044444444444444446,316.13333333333355,0)" xlink:href="#W"/><use transform="matrix(0.044444444444444446,0,0,0.044444444444444446,320.577777777778,0)" xlink:href="#aZ"/><use transform="matrix(0.044444444444444446,0,0,0.044444444444444446,324.08888888888913,0)" xlink:href="#Q"/><use transform="matrix(0.044444444444444446,0,0,0.044444444444444446,332.08888888888913,0)" xlink:href="#aT"/><use transform="matrix(0.044444444444444446,0,0,0.044444444444444446,340.97777777777804,0)" xlink:href="#Z"/></g><path d="M26 75v-336h71v23H56V52h41v23H26" id="bd"/><path d="M39-94c74 12-11 154 75 146v23c-44 4-70-10-70-52C44-23 55-84 6-82v-22c81 4-7-162 84-157h24v23c-82-15-2 131-75 144" id="be"/><g id="w"><use transform="matrix(0.03703703703703704,0,0,0.03703703703703704,0,0)" xlink:href="#bd"/><use transform="matrix(0.03703703703703704,0,0,0.03703703703703704,3.703703703703704,0)" xlink:href="#be"/></g><path d="M109-170H84l-4-78h32zm-65 0H19l-4-78h33" id="bf"/><g id="x"><use transform="matrix(0.03703703703703704,0,0,0.03703703703703704,0,0)" xlink:href="#bf"/><use transform="matrix(0.03703703703703704,0,0,0.03703703703703704,4.703703703703704,0)" xlink:href="#X"/><use transform="matrix(0.03703703703703704,0,0,0.03703703703703704,11.370370370370372,0)" xlink:href="#aT"/><use transform="matrix(0.03703703703703704,0,0,0.03703703703703704,18.77777777777778,0)" xlink:href="#Z"/><use transform="matrix(0.03703703703703704,0,0,0.03703703703703704,26.185185185185187,0)" xlink:href="#O"/><use transform="matrix(0.03703703703703704,0,0,0.03703703703703704,29.888888888888893,0)" xlink:href="#V"/><use transform="matrix(0.03703703703703704,0,0,0.03703703703703704,37.296296296296305,0)" xlink:href="#Z"/><use transform="matrix(0.03703703703703704,0,0,0.03703703703703704,44.70370370370371,0)" xlink:href="#O"/><use transform="matrix(0.03703703703703704,0,0,0.03703703703703704,48.40740740740741,0)" xlink:href="#bf"/><use transform="matrix(0.03703703703703704,0,0,0.03703703703703704,53.11111111111112,0)" xlink:href="#M"/></g><path d="M68-38c1 34 0 65-14 84H32c9-13 17-26 17-46H33v-38h35" id="bg"/><g id="y"><use transform="matrix(0.03703703703703704,0,0,0.03703703703703704,0,0)" xlink:href="#bf"/><use transform="matrix(0.03703703703703704,0,0,0.03703703703703704,4.703703703703704,0)" xlink:href="#O"/><use transform="matrix(0.03703703703703704,0,0,0.03703703703703704,8.407407407407408,0)" xlink:href="#V"/><use transform="matrix(0.03703703703703704,0,0,0.03703703703703704,15.814814814814817,0)" xlink:href="#Q"/><use transform="matrix(0.03703703703703704,0,0,0.03703703703703704,22.481481481481485,0)" xlink:href="#O"/><use transform="matrix(0.03703703703703704,0,0,0.03703703703703704,26.185185185185187,0)" xlink:href="#bf"/><use transform="matrix(0.03703703703703704,0,0,0.03703703703703704,30.888888888888893,0)" xlink:href="#bg"/><use transform="matrix(0.03703703703703704,0,0,0.03703703703703704,34.592592592592595,0)" xlink:href="#bf"/><use transform="matrix(0.03703703703703704,0,0,0.03703703703703704,39.296296296296305,0)" xlink:href="#T"/><use transform="matrix(0.03703703703703704,0,0,0.03703703703703704,46.70370370370371,0)" xlink:href="#ad"/><use transform="matrix(0.03703703703703704,0,0,0.03703703703703704,54.11111111111112,0)" xlink:href="#O"/><use transform="matrix(0.03703703703703704,0,0,0.03703703703703704,57.81481481481482,0)" xlink:href="#V"/><use transform="matrix(0.03703703703703704,0,0,0.03703703703703704,65.22222222222223,0)" xlink:href="#bf"/><use transform="matrix(0.03703703703703704,0,0,0.03703703703703704,69.92592592592594,0)" xlink:href="#M"/></g><path d="M101-251c82-7 93 87 43 132L82-64C71-53 59-42 53-27h129V0H18c2-99 128-94 128-182 0-28-16-43-45-43s-46 15-49 41l-32-3c6-41 34-60 81-64" id="bh"/><path d="M101-251c68 0 85 55 85 127S166 4 100 4C33 4 14-52 14-124c0-73 17-127 87-127zm-1 229c47 0 54-49 54-102s-4-102-53-102c-51 0-55 48-55 102 0 53 5 102 54 102" id="bi"/><path d="M155-56V0h-30v-56H8v-25l114-167h33v167h35v25h-35zm-30-156c-27 46-58 90-88 131h88v-131" id="bj"/><path d="M16-82v-28h88v28H16" id="bk"/><path d="M64 0c3-98 48-159 88-221H18v-27h164v26C143-157 98-101 97 0H64" id="bl"/><path d="M27 0v-27h64v-190l-56 39v-29l58-41h29v221h61V0H27" id="bm"/><path d="M134-131c28 9 52 24 51 62-1 50-34 73-85 73S17-19 16-69c0-36 21-54 49-61-75-25-45-126 34-121 46 3 78 18 79 63 0 33-17 51-44 57zm-34-11c31 1 46-15 46-44 0-28-17-43-47-42-29 0-46 13-45 42 1 28 16 44 46 44zm1 122c35 0 51-18 51-52 0-30-18-46-53-46-33 0-51 17-51 47 0 34 19 51 53 51" id="bn"/><path d="M126-127c33 6 58 20 58 59 0 88-139 92-164 29-3-8-5-16-6-25l32-3c6 27 21 44 54 44 32 0 52-15 52-46 0-38-36-46-79-43v-28c39 1 72-4 72-42 0-27-17-43-46-43-28 0-47 15-49 41l-32-3c6-42 35-63 81-64 48-1 79 21 79 65 0 36-21 52-52 59" id="bo"/><path d="M99-251c64 0 84 50 84 122C183-37 130 33 47-8c-14-7-20-23-25-40l30-5c6 39 69 39 84 7 9-19 16-44 16-74-10 22-31 35-62 35-49 0-73-33-73-83 0-54 28-83 82-83zm-1 141c31-1 51-18 51-49 0-36-14-67-51-67-34 0-49 23-49 58 0 34 15 58 49 58" id="bp"/><path d="M54-142c48-35 137-8 131 61C196 18 31 33 14-55l32-4c7 23 22 37 52 37 35-1 51-22 54-58 4-55-73-65-99-34H22l8-134h141v27H59" id="bq"/><path d="M110-160c48 1 74 30 74 79 0 53-28 85-80 85-65 0-83-55-86-122-5-90 50-162 133-122 14 7 22 21 27 39l-31 6c-5-40-67-38-82-6-9 19-15 44-15 74 11-20 30-34 60-33zm-7 138c34 0 49-23 49-58s-16-56-50-56c-29 0-50 16-49 49 1 36 15 65 50 65" id="br"/><path d="M209 0H11v-25l151-195H24v-28h176v25L50-27h159V0" id="bs"/><path d="M76-40C78 24 84 88 6 75V52C86 64 9-79 80-94c-40-6-34-59-34-106 1-29-11-41-40-38v-23c44-4 70 10 70 52 0 47-12 108 38 105v22c-26 1-39 14-38 42" id="bt"/><g id="z"><use transform="matrix(0.03703703703703704,0,0,0.03703703703703704,0,0)" xlink:href="#bf"/><use transform="matrix(0.03703703703703704,0,0,0.03703703703703704,4.703703703703704,0)" xlink:href="#bh"/><use transform="matrix(0.03703703703703704,0,0,0.03703703703703704,12.111111111111112,0)" xlink:href="#bi"/><use transform="matrix(0.03703703703703704,0,0,0.03703703703703704,19.518518518518523,0)" xlink:href="#bh"/><use transform="matrix(0.03703703703703704,0,0,0.03703703703703704,26.92592592592593,0)" xlink:href="#bj"/><use transform="matrix(0.03703703703703704,0,0,0.03703703703703704,34.333333333333336,0)" xlink:href="#bk"/><use transform="matrix(0.03703703703703704,0,0,0.03703703703703704,38.74074074074075,0)" xlink:href="#bi"/><use transform="matrix(0.03703703703703704,0,0,0.03703703703703704,46.14814814814815,0)" xlink:href="#bl"/><use transform="matrix(0.03703703703703704,0,0,0.03703703703703704,53.55555555555556,0)" xlink:href="#bk"/><use transform="matrix(0.03703703703703704,0,0,0.03703703703703704,57.96296296296296,0)" xlink:href="#bm"/><use transform="matrix(0.03703703703703704,0,0,0.03703703703703704,65.37037037037037,0)" xlink:href="#bn"/><use transform="matrix(0.03703703703703704,0,0,0.03703703703703704,72.77777777777777,0)" xlink:href="#L"/><use transform="matrix(0.03703703703703704,0,0,0.03703703703703704,80.88888888888889,0)" xlink:href="#bh"/><use transform="matrix(0.03703703703703704,0,0,0.03703703703703704,88.29629629629629,0)" xlink:href="#bo"/><use transform="matrix(0.03703703703703704,0,0,0.03703703703703704,95.7037037037037,0)" xlink:href="#M"/><use transform="matrix(0.03703703703703704,0,0,0.03703703703703704,99.4074074074074,0)" xlink:href="#bi"/><use transform="matrix(0.03703703703703704,0,0,0.03703703703703704,106.81481481481481,0)" xlink:href="#bp"/><use transform="matrix(0.03703703703703704,0,0,0.03703703703703704,114.22222222222221,0)" xlink:href="#M"/><use transform="matrix(0.03703703703703704,0,0,0.03703703703703704,117.92592592592592,0)" xlink:href="#bh"/><use transform="matrix(0.03703703703703704,0,0,0.03703703703703704,125.33333333333333,0)" xlink:href="#bm"/><use transform="matrix(0.03703703703703704,0,0,0.03703703703703704,132.74074074074073,0)" xlink:href="#W"/><use transform="matrix(0.03703703703703704,0,0,0.03703703703703704,136.44444444444443,0)" xlink:href="#bq"/><use transform="matrix(0.03703703703703704,0,0,0.03703703703703704,143.85185185185185,0)" xlink:href="#br"/><use transform="matrix(0.03703703703703704,0,0,0.03703703703703704,151.25925925925927,0)" xlink:href="#bi"/><use transform="matrix(0.03703703703703704,0,0,0.03703703703703704,158.66666666666669,0)" xlink:href="#bs"/><use transform="matrix(0.03703703703703704,0,0,0.03703703703703704,166.7777777777778,0)" xlink:href="#bf"/><use transform="matrix(0.03703703703703704,0,0,0.03703703703703704,171.4814814814815,0)" xlink:href="#bt"/><use transform="matrix(0.03703703703703704,0,0,0.03703703703703704,175.92592592592595,0)" xlink:href="#bg"/><use transform="matrix(0.03703703703703704,0,0,0.03703703703703704,179.62962962962965,0)" xlink:href="#be"/><use transform="matrix(0.03703703703703704,0,0,0.03703703703703704,184.0740740740741,0)" xlink:href="#X"/><use transform="matrix(0.03703703703703704,0,0,0.03703703703703704,190.74074074074076,0)" xlink:href="#aT"/><use transform="matrix(0.03703703703703704,0,0,0.03703703703703704,198.14814814814818,0)" xlink:href="#Z"/><use transform="matrix(0.03703703703703704,0,0,0.03703703703703704,205.55555555555563,0)" xlink:href="#O"/><use transform="matrix(0.03703703703703704,0,0,0.03703703703703704,209.2592592592593,0)" xlink:href="#V"/><use transform="matrix(0.03703703703703704,0,0,0.03703703703703704,216.66666666666674,0)" xlink:href="#Z"/><use transform="matrix(0.03703703703703704,0,0,0.03703703703703704,224.07407407407413,0)" xlink:href="#O"/><use transform="matrix(0.03703703703703704,0,0,0.03703703703703704,227.77777777777783,0)" xlink:href="#bf"/><use transform="matrix(0.03703703703703704,0,0,0.03703703703703704,232.48148148148152,0)" xlink:href="#M"/></g><path d="M3 75V52h41v-290H3v-23h71V75H3" id="bu"/><g id="A"><use transform="matrix(0.03703703703703704,0,0,0.03703703703703704,0,0)" xlink:href="#bf"/><use transform="matrix(0.03703703703703704,0,0,0.03703703703703704,4.703703703703704,0)" xlink:href="#aQ"/><use transform="matrix(0.03703703703703704,0,0,0.03703703703703704,14.296296296296298,0)" xlink:href="#V"/><use transform="matrix(0.03703703703703704,0,0,0.03703703703703704,21.703703703703706,0)" xlink:href="#W"/><use transform="matrix(0.03703703703703704,0,0,0.03703703703703704,25.407407407407412,0)" xlink:href="#W"/><use transform="matrix(0.03703703703703704,0,0,0.03703703703703704,29.111111111111114,0)" xlink:href="#W"/><use transform="matrix(0.03703703703703704,0,0,0.03703703703703704,32.81481481481482,0)" xlink:href="#bt"/><use transform="matrix(0.03703703703703704,0,0,0.03703703703703704,37.25925925925926,0)" xlink:href="#W"/><use transform="matrix(0.03703703703703704,0,0,0.03703703703703704,40.96296296296296,0)" xlink:href="#W"/><use transform="matrix(0.03703703703703704,0,0,0.03703703703703704,44.666666666666664,0)" xlink:href="#W"/><use transform="matrix(0.03703703703703704,0,0,0.03703703703703704,48.37037037037037,0)" xlink:href="#bu"/></g><path fill="#282c33" d="M30 0v-248h187v28H63v79h144v27H63v87h162V0H30" id="bv"/><path fill="#282c33" d="M141 0L90-78 38 0H4l68-98-65-92h35l48 74 47-74h35l-64 92 68 98h-35" id="bw"/><path fill="#282c33" d="M96-169c-40 0-48 33-48 73s9 75 48 75c24 0 41-14 43-38l32 2c-6 37-31 61-74 61-59 0-76-41-82-99-10-93 101-131 147-64 4 7 5 14 7 22l-32 3c-4-21-16-35-41-35" id="bx"/><g id="B"><use transform="matrix(0.04320987654320988,0,0,0.04320987654320988,0,0)" xlink:href="#bv"/><use transform="matrix(0.04320987654320988,0,0,0.04320987654320988,10.370370370370372,0)" xlink:href="#bw"/><use transform="matrix(0.04320987654320988,0,0,0.04320987654320988,18.148148148148152,0)" xlink:href="#bx"/></g><path fill="#282c33" d="M212-179c-10-28-35-45-73-45-59 0-87 40-87 99 0 60 29 101 89 101 43 0 62-24 78-52l27 14C228-24 195 4 139 4 59 4 22-46 18-125c-6-104 99-153 187-111 19 9 31 26 39 46" id="by"/><path fill="#282c33" d="M141-36C126-15 110 5 73 4 37 3 15-17 15-53c-1-64 63-63 125-63 3-35-9-54-41-54-24 1-41 7-42 31l-33-3c5-37 33-52 76-52 45 0 72 20 72 64v82c-1 20 7 32 28 27v20c-31 9-61-2-59-35zM48-53c0 20 12 33 32 33 41-3 63-29 60-74-43 2-92-5-92 41" id="bz"/><path fill="#282c33" d="M24 0v-261h32V0H24" id="bA"/><path fill="#282c33" d="M160-131c35 5 61 23 61 61C221 17 115-2 30 0v-248c76 3 177-17 177 60 0 33-19 50-47 57zm-97-11c50-1 110 9 110-42 0-47-63-36-110-37v79zm0 115c55-2 124 14 124-45 0-56-70-42-124-44v89" id="bB"/><path fill="#282c33" d="M115-194c53 0 69 39 70 98 0 66-23 100-70 100C84 3 66-7 56-30L54 0H23l1-261h32v101c10-23 28-34 59-34zm-8 174c40 0 45-34 45-75 0-40-5-75-45-74-42 0-51 32-51 76 0 43 10 73 51 73" id="bC"/><path fill="#282c33" d="M143 0L79-87 56-68V0H24v-261h32v163l83-92h37l-77 82L181 0h-38" id="bD"/><g id="C"><use transform="matrix(0.04320987654320988,0,0,0.04320987654320988,0,0)" xlink:href="#by"/><use transform="matrix(0.04320987654320988,0,0,0.04320987654320988,11.19135802469136,0)" xlink:href="#bz"/><use transform="matrix(0.04320987654320988,0,0,0.04320987654320988,19.833333333333336,0)" xlink:href="#bA"/><use transform="matrix(0.04320987654320988,0,0,0.04320987654320988,23.246913580246915,0)" xlink:href="#bA"/><use transform="matrix(0.04320987654320988,0,0,0.04320987654320988,26.6604938271605,0)" xlink:href="#bB"/><use transform="matrix(0.04320987654320988,0,0,0.04320987654320988,37.030864197530875,0)" xlink:href="#bz"/><use transform="matrix(0.04320987654320988,0,0,0.04320987654320988,45.67283950617284,0)" xlink:href="#bC"/><use transform="matrix(0.04320987654320988,0,0,0.04320987654320988,54.314814814814824,0)" xlink:href="#bD"/></g><path fill="#282c33" d="M101-234c-31-9-42 10-38 44h38v23H63V0H32v-167H5v-23h27c-7-52 17-82 69-68v24" id="bE"/><path fill="#282c33" d="M84 4C-5 8 30-112 23-190h32v120c0 31 7 50 39 49 72-2 45-101 50-169h31l1 190h-30c-1-10 1-25-2-33-11 22-28 36-60 37" id="bF"/><path fill="#282c33" d="M117-194c89-4 53 116 60 194h-32v-121c0-31-8-49-39-48C34-167 62-67 57 0H25l-1-190h30c1 10-1 24 2 32 11-22 29-35 61-36" id="bG"/><g id="D"><use transform="matrix(0.04320987654320988,0,0,0.04320987654320988,0,0)" xlink:href="#bE"/><use transform="matrix(0.04320987654320988,0,0,0.04320987654320988,4.320987654320988,0)" xlink:href="#bF"/><use transform="matrix(0.04320987654320988,0,0,0.04320987654320988,12.962962962962964,0)" xlink:href="#bG"/><use transform="matrix(0.04320987654320988,0,0,0.04320987654320988,21.604938271604944,0)" xlink:href="#bx"/></g><path fill="#282c33" d="M233-177c-1 41-23 64-60 70L243 0h-38l-65-103H63V0H30v-248c88 3 205-21 203 71zM63-129c60-2 137 13 137-47 0-61-80-42-137-45v92" id="bH"/><path fill="#282c33" d="M100-194c63 0 86 42 84 106H49c0 40 14 67 53 68 26 1 43-12 49-29l28 8c-11 28-37 45-77 45C44 4 14-33 15-96c1-61 26-98 85-98zm52 81c6-60-76-77-97-28-3 7-6 17-6 28h103" id="bI"/><path fill="#282c33" d="M85-194c31 0 48 13 60 33l-1-100h32l1 261h-30c-2-10 0-23-3-31C134-8 116 4 85 4 32 4 16-35 15-94c0-66 23-100 70-100zm9 24c-40 0-46 34-46 75 0 40 6 74 45 74 42 0 51-32 51-76 0-42-9-74-50-73" id="bJ"/><path fill="#282c33" d="M114-163C36-179 61-72 57 0H25l-1-190h30c1 12-1 29 2 39 6-27 23-49 58-41v29" id="bK"/><g id="E"><use transform="matrix(0.06172839506172839,0,0,0.06172839506172839,0,0)" xlink:href="#bH"/><use transform="matrix(0.06172839506172839,0,0,0.06172839506172839,15.987654320987653,0)" xlink:href="#bI"/><use transform="matrix(0.06172839506172839,0,0,0.06172839506172839,28.333333333333332,0)" xlink:href="#bG"/><use transform="matrix(0.06172839506172839,0,0,0.06172839506172839,40.67901234567901,0)" xlink:href="#bJ"/><use transform="matrix(0.06172839506172839,0,0,0.06172839506172839,53.02469135802469,0)" xlink:href="#bI"/><use transform="matrix(0.06172839506172839,0,0,0.06172839506172839,65.37037037037037,0)" xlink:href="#bK"/></g><path fill="#282c33" d="M153-248C145-148 188 4 80 4 36 3 13-21 6-62l32-5c4 25 16 42 43 43 27 0 39-20 39-49v-147H72v-28h81" id="bL"/><path fill="#282c33" d="M185-189c-5-48-123-54-124 2 14 75 158 14 163 119 3 78-121 87-175 55-17-10-28-26-33-46l33-7c5 56 141 63 141-1 0-78-155-14-162-118-5-82 145-84 179-34 5 7 8 16 11 25" id="bM"/><path fill="#282c33" d="M190 0L58-211 59 0H30v-248h39L202-35l-2-213h31V0h-41" id="bN"/><g id="F"><use transform="matrix(0.06172839506172839,0,0,0.06172839506172839,0,0)" xlink:href="#bL"/><use transform="matrix(0.06172839506172839,0,0,0.06172839506172839,11.11111111111111,0)" xlink:href="#bM"/><use transform="matrix(0.06172839506172839,0,0,0.06172839506172839,25.925925925925924,0)" xlink:href="#aU"/><use transform="matrix(0.06172839506172839,0,0,0.06172839506172839,43.20987654320987,0)" xlink:href="#bN"/></g><path fill="#282c33" d="M59-47c-2 24 18 29 38 22v24C64 9 27 4 27-40v-127H5v-23h24l9-43h21v43h35v23H59v120" id="bO"/><path fill="#282c33" d="M24-231v-30h32v30H24zM24 0v-190h32V0H24" id="bP"/><path fill="#282c33" d="M100-194c62-1 85 37 85 99 1 63-27 99-86 99S16-35 15-95c0-66 28-99 85-99zM99-20c44 1 53-31 53-75 0-43-8-75-51-75s-53 32-53 75 10 74 51 75" id="bQ"/><g id="G"><use transform="matrix(0.06172839506172839,0,0,0.06172839506172839,0,0)" xlink:href="#bv"/><use transform="matrix(0.06172839506172839,0,0,0.06172839506172839,14.814814814814813,0)" xlink:href="#bw"/><use transform="matrix(0.06172839506172839,0,0,0.06172839506172839,25.925925925925924,0)" xlink:href="#bI"/><use transform="matrix(0.06172839506172839,0,0,0.06172839506172839,38.2716049382716,0)" xlink:href="#bx"/><use transform="matrix(0.06172839506172839,0,0,0.06172839506172839,49.38271604938271,0)" xlink:href="#bF"/><use transform="matrix(0.06172839506172839,0,0,0.06172839506172839,61.728395061728385,0)" xlink:href="#bO"/><use transform="matrix(0.06172839506172839,0,0,0.06172839506172839,67.90123456790123,0)" xlink:href="#bP"/><use transform="matrix(0.06172839506172839,0,0,0.06172839506172839,72.77777777777777,0)" xlink:href="#bQ"/><use transform="matrix(0.06172839506172839,0,0,0.06172839506172839,85.12345679012346,0)" xlink:href="#bG"/></g><path fill="#282c33" d="M33 0v-38h34V0H33" id="bR"/><path fill="#282c33" d="M24-231v-30h32v30H24zM-9 49c24 4 33-6 33-30v-209h32V24c2 40-23 58-65 49V49" id="bS"/><path fill="#282c33" d="M135-143c-3-34-86-38-87 0 15 53 115 12 119 90S17 21 10-45l28-5c4 36 97 45 98 0-10-56-113-15-118-90-4-57 82-63 122-42 12 7 21 19 24 35" id="bT"/><g id="H"><use transform="matrix(0.06172839506172839,0,0,0.06172839506172839,0,0)" xlink:href="#bR"/><use transform="matrix(0.06172839506172839,0,0,0.06172839506172839,6.172839506172839,0)" xlink:href="#bS"/><use transform="matrix(0.06172839506172839,0,0,0.06172839506172839,11.049382716049383,0)" xlink:href="#bT"/></g><path fill="#282c33" d="M106-169C34-169 62-67 57 0H25v-261h32l-1 103c12-21 28-36 61-36 89 0 53 116 60 194h-32v-121c2-32-8-49-39-48" id="bU"/><g id="I"><use transform="matrix(0.06172839506172839,0,0,0.06172839506172839,0,0)" xlink:href="#bE"/><use transform="matrix(0.06172839506172839,0,0,0.06172839506172839,6.172839506172839,0)" xlink:href="#bI"/><use transform="matrix(0.06172839506172839,0,0,0.06172839506172839,18.51851851851852,0)" xlink:href="#bO"/><use transform="matrix(0.06172839506172839,0,0,0.06172839506172839,24.691358024691358,0)" xlink:href="#bx"/><use transform="matrix(0.06172839506172839,0,0,0.06172839506172839,35.80246913580247,0)" xlink:href="#bU"/></g></defs></g></svg>